# Blender v2.74 (sub 0) OBJ File: ''
# www.blender.org
mtllib checker.mtl
o Cylinder
v 0.000000 0.011422 -0.000000
v 0.000000 0.921677 -0.000000
v 0.000000 0.011422 -0.900000
v 0.000000 0.710322 -0.900000
v 0.175581 0.011422 -0.882707
v 0.175581 0.710322 -0.882707
v 0.344415 0.011422 -0.831492
v 0.344415 0.710322 -0.831492
v 0.500013 0.011422 -0.748323
v 0.500013 0.710322 -0.748323
v 0.636396 0.011422 -0.636396
v 0.636396 0.710322 -0.636396
v 0.748323 0.011422 -0.500013
v 0.748323 0.710322 -0.500013
v 0.831492 0.011422 -0.344415
v 0.831492 0.710322 -0.344415
v 0.882707 0.011422 -0.175581
v 0.882707 0.710322 -0.175581
v 0.900000 0.011422 -0.000000
v 0.900000 0.710322 -0.000000
v 0.882707 0.011422 0.175581
v 0.882707 0.710322 0.175581
v 0.831492 0.011422 0.344415
v 0.831492 0.710322 0.344415
v 0.748323 0.011422 0.500013
v 0.748323 0.710322 0.500013
v 0.636396 0.011422 0.636396
v 0.636396 0.710322 0.636396
v 0.500013 0.011422 0.748323
v 0.500013 0.710322 0.748323
v 0.344415 0.011422 0.831492
v 0.344415 0.710322 0.831492
v 0.175581 0.011422 0.882707
v 0.175581 0.710322 0.882707
v -0.000000 0.011422 0.900000
v -0.000000 0.710322 0.900000
v -0.175582 0.011422 0.882707
v -0.175582 0.710322 0.882707
v -0.344415 0.011422 0.831491
v -0.344415 0.710322 0.831491
v -0.500014 0.011422 0.748322
v -0.500014 0.710322 0.748322
v -0.636396 0.011422 0.636396
v -0.636396 0.710322 0.636396
v -0.748323 0.011422 0.500013
v -0.748323 0.710322 0.500013
v -0.831492 0.011422 0.344414
v -0.831492 0.710322 0.344414
v -0.882707 0.011422 0.175580
v -0.882707 0.710322 0.175580
v -0.900000 0.011422 -0.000001
v -0.900000 0.710322 -0.000001
v -0.882707 0.011422 -0.175582
v -0.882707 0.710322 -0.175582
v -0.831491 0.011422 -0.344416
v -0.831491 0.710322 -0.344416
v -0.748322 0.011422 -0.500014
v -0.748322 0.710322 -0.500014
v -0.636395 0.011422 -0.636397
v -0.636395 0.710322 -0.636397
v -0.500012 0.011422 -0.748323
v -0.500012 0.710322 -0.748323
v -0.344414 0.011422 -0.831492
v -0.344414 0.710322 -0.831492
v -0.175580 0.011422 -0.882707
v -0.175580 0.710322 -0.882707
v 0.000000 0.088696 -1.000000
v 0.000000 0.193268 -1.000000
v 0.000000 0.555142 -1.000000
v 0.000000 0.705661 -1.000000
v 0.195090 0.705661 -0.980785
v 0.195090 0.555142 -0.980785
v 0.195090 0.193268 -0.980785
v 0.195090 0.088696 -0.980785
v 0.382683 0.705661 -0.923880
v 0.382683 0.555142 -0.923880
v 0.382683 0.193268 -0.923880
v 0.382683 0.088696 -0.923880
v 0.555570 0.705661 -0.831470
v 0.555570 0.555142 -0.831470
v 0.555570 0.193268 -0.831470
v 0.555570 0.088696 -0.831470
v 0.707107 0.705661 -0.707107
v 0.707107 0.555142 -0.707107
v 0.707107 0.193268 -0.707107
v 0.707107 0.088696 -0.707107
v 0.831470 0.705661 -0.555570
v 0.831470 0.555142 -0.555570
v 0.831470 0.193268 -0.555570
v 0.831470 0.088696 -0.555570
v 0.923880 0.705661 -0.382683
v 0.923880 0.555142 -0.382683
v 0.923880 0.193268 -0.382683
v 0.923880 0.088696 -0.382683
v 0.980785 0.705661 -0.195090
v 0.980785 0.555142 -0.195090
v 0.980785 0.193268 -0.195090
v 0.980785 0.088696 -0.195090
v 1.000000 0.705661 -0.000000
v 1.000000 0.555142 -0.000000
v 1.000000 0.193268 -0.000000
v 1.000000 0.088696 -0.000000
v 0.980785 0.705661 0.195090
v 0.980785 0.555142 0.195090
v 0.980785 0.193268 0.195090
v 0.980785 0.088696 0.195090
v 0.923880 0.705661 0.382683
v 0.923880 0.555142 0.382683
v 0.923880 0.193268 0.382683
v 0.923880 0.088696 0.382683
v 0.831470 0.705661 0.555570
v 0.831470 0.555142 0.555570
v 0.831470 0.193268 0.555570
v 0.831470 0.088696 0.555570
v 0.707107 0.705661 0.707107
v 0.707107 0.555142 0.707107
v 0.707107 0.193268 0.707107
v 0.707107 0.088696 0.707107
v 0.555570 0.705661 0.831470
v 0.555570 0.555142 0.831470
v 0.555570 0.193268 0.831470
v 0.555570 0.088696 0.831470
v 0.382683 0.705661 0.923880
v 0.382683 0.555142 0.923880
v 0.382683 0.193268 0.923880
v 0.382683 0.088696 0.923880
v 0.195090 0.705661 0.980785
v 0.195090 0.555142 0.980785
v 0.195090 0.193268 0.980785
v 0.195090 0.088696 0.980785
v -0.000000 0.705661 1.000000
v -0.000000 0.555142 1.000000
v -0.000000 0.193268 1.000000
v -0.000000 0.088696 1.000000
v -0.195091 0.705661 0.980785
v -0.195091 0.555142 0.980785
v -0.195091 0.193268 0.980785
v -0.195091 0.088696 0.980785
v -0.382684 0.705661 0.923879
v -0.382684 0.555142 0.923879
v -0.382684 0.193268 0.923879
v -0.382684 0.088696 0.923879
v -0.555571 0.705661 0.831469
v -0.555571 0.555142 0.831469
v -0.555571 0.193268 0.831469
v -0.555571 0.088696 0.831469
v -0.707107 0.705661 0.707106
v -0.707107 0.555142 0.707106
v -0.707107 0.193268 0.707106
v -0.707107 0.088696 0.707106
v -0.831470 0.705661 0.555570
v -0.831470 0.555142 0.555570
v -0.831470 0.193268 0.555570
v -0.831470 0.088696 0.555570
v -0.923880 0.705661 0.382683
v -0.923880 0.555142 0.382683
v -0.923880 0.193268 0.382683
v -0.923880 0.088696 0.382683
v -0.980785 0.705661 0.195089
v -0.980785 0.555142 0.195089
v -0.980785 0.193268 0.195089
v -0.980785 0.088696 0.195089
v -1.000000 0.705661 -0.000001
v -1.000000 0.555142 -0.000001
v -1.000000 0.193268 -0.000001
v -1.000000 0.088696 -0.000001
v -0.980785 0.705661 -0.195091
v -0.980785 0.555142 -0.195091
v -0.980785 0.193268 -0.195091
v -0.980785 0.088696 -0.195091
v -0.923879 0.705661 -0.382684
v -0.923879 0.555142 -0.382684
v -0.923879 0.193268 -0.382684
v -0.923879 0.088696 -0.382684
v -0.831469 0.705661 -0.555571
v -0.831469 0.555142 -0.555571
v -0.831469 0.193268 -0.555571
v -0.831469 0.088696 -0.555571
v -0.707106 0.705661 -0.707108
v -0.707106 0.555142 -0.707108
v -0.707106 0.193268 -0.707108
v -0.707106 0.088696 -0.707108
v -0.555569 0.705661 -0.831470
v -0.555569 0.555142 -0.831470
v -0.555569 0.193268 -0.831470
v -0.555569 0.088696 -0.831470
v -0.382682 0.705661 -0.923880
v -0.382682 0.555142 -0.923880
v -0.382682 0.193268 -0.923880
v -0.382682 0.088696 -0.923880
v -0.195089 0.705661 -0.980786
v -0.195089 0.555142 -0.980786
v -0.195089 0.193268 -0.980786
v -0.195089 0.088696 -0.980786
v 0.000000 0.921677 -0.000000
v 0.000000 0.921677 -0.000000
v 0.000000 0.633852 -0.900000
v 0.000000 0.633852 -0.000000
v 0.175581 0.633852 -0.882707
v 0.344415 0.633852 -0.831492
v 0.500013 0.633852 -0.748323
v 0.636396 0.633852 -0.636396
v 0.748323 0.633852 -0.500013
v 0.831492 0.633852 -0.344415
v 0.882707 0.633852 -0.175581
v 0.900000 0.633852 -0.000000
v 0.882707 0.633852 0.175581
v 0.831492 0.633852 0.344415
v 0.748323 0.633852 0.500013
v 0.636396 0.633852 0.636396
v 0.500013 0.633852 0.748323
v 0.344415 0.633852 0.831492
v 0.175581 0.633852 0.882707
v -0.000000 0.633852 0.900000
v -0.175582 0.633852 0.882707
v -0.344415 0.633852 0.831491
v -0.500014 0.633852 0.748322
v -0.636396 0.633852 0.636396
v -0.748323 0.633852 0.500013
v -0.831492 0.633852 0.344414
v -0.882707 0.633852 0.175580
v -0.900000 0.633852 -0.000001
v -0.882707 0.633852 -0.175582
v -0.831491 0.633852 -0.344416
v -0.748322 0.633852 -0.500014
v -0.636395 0.633852 -0.636397
v -0.500012 0.633852 -0.748323
v -0.344414 0.633852 -0.831492
v -0.175580 0.633852 -0.882707
vn 0.000000 -1.000000 0.000000
vn -0.881900 0.000000 0.471400
vn 0.004600 0.998900 -0.046600
vn 0.098000 0.000000 -0.995200
vn 0.013600 0.998900 -0.044800
vn 0.773000 0.000000 0.634400
vn 0.022100 0.998900 -0.041300
vn -0.634400 0.000000 -0.773000
vn 0.029700 0.998900 -0.036200
vn -0.290300 0.000000 0.956900
vn 0.036200 0.998900 -0.029700
vn 0.995200 0.000000 -0.098000
vn 0.041300 0.998900 -0.022100
vn -0.995200 0.000000 -0.098000
vn 0.044800 0.998900 -0.013600
vn 0.634400 0.000000 -0.773000
vn 0.046600 0.998900 -0.004600
vn 0.290300 0.000000 0.956900
vn 0.046600 0.998900 0.004600
vn -0.098000 0.000000 -0.995200
vn 0.044800 0.998900 0.013600
vn -0.773000 0.000000 0.634400
vn 0.041300 0.998900 0.022100
vn 0.881900 0.000000 0.471400
vn 0.036200 0.998900 0.029700
vn -0.773000 0.000000 -0.634400
vn 0.029700 0.998900 0.036200
vn 0.956900 0.000000 -0.290300
vn 0.022100 0.998900 0.041300
vn -0.995200 0.000000 0.098000
vn 0.013600 0.998900 0.044800
vn 0.471400 0.000000 -0.881900
vn 0.004600 0.998900 0.046600
vn 0.471400 0.000000 0.881900
vn -0.004600 0.998900 0.046600
vn -0.290300 0.000000 -0.956900
vn -0.013600 0.998900 0.044800
vn -0.634400 0.000000 0.773000
vn -0.022100 0.998900 0.041300
vn 0.956900 0.000000 0.290300
vn -0.029700 0.998900 0.036200
vn -0.881900 0.000000 -0.471400
vn -0.036200 0.998900 0.029700
vn 0.881900 0.000000 -0.471400
vn -0.041300 0.998900 0.022100
vn -0.956900 0.000000 0.290300
vn -0.044800 0.998900 0.013600
vn 0.290300 0.000000 -0.956900
vn -0.046600 0.998900 0.004600
vn 0.634400 0.000000 0.773000
vn -0.046600 0.998900 -0.004600
vn -0.471400 0.000000 -0.881900
vn -0.044800 0.998900 -0.013600
vn -0.471400 0.000000 0.881900
vn -0.041300 0.998900 -0.022100
vn -0.098000 0.000000 0.995200
vn -0.036200 0.998900 -0.029700
vn 0.995200 0.000000 0.098000
vn -0.029700 0.998900 -0.036200
vn 0.098000 0.000000 0.995200
vn -0.022100 0.998900 -0.041300
vn -0.956900 0.000000 -0.290300
vn -0.013600 0.998900 -0.044800
vn 0.773000 0.000000 -0.634400
vn -0.004600 0.998900 -0.046600
vn -0.060100 -0.789800 -0.610400
vn -0.178000 -0.789800 -0.586900
vn -0.289100 -0.789800 -0.540900
vn -0.389100 -0.789800 -0.474100
vn -0.474100 -0.789800 -0.389100
vn -0.540900 -0.789800 -0.289100
vn -0.586900 -0.789800 -0.178000
vn -0.610300 -0.789800 -0.060100
vn -0.610400 -0.789800 0.060100
vn -0.586900 -0.789800 0.178000
vn -0.540900 -0.789800 0.289100
vn -0.474100 -0.789800 0.389100
vn -0.389100 -0.789800 0.474100
vn -0.289100 -0.789800 0.540900
vn -0.178000 -0.789800 0.586900
vn -0.060100 -0.789800 0.610300
vn 0.060100 -0.789800 0.610300
vn 0.178000 -0.789800 0.586900
vn 0.289100 -0.789800 0.540900
vn 0.389100 -0.789800 0.474100
vn 0.474100 -0.789800 0.389100
vn 0.540900 -0.789800 0.289100
vn 0.586900 -0.789800 0.178000
vn 0.610300 -0.789800 0.060100
vn 0.610400 -0.789800 -0.060100
vn 0.586900 -0.789800 -0.178000
vn 0.540900 -0.789800 -0.289100
vn 0.474100 -0.789800 -0.389100
vn 0.389100 -0.789800 -0.474100
vn 0.289100 -0.789800 -0.540900
vn 0.178000 -0.789800 -0.586900
vn 0.060100 -0.789800 -0.610400
vn 0.000000 1.000000 0.000000
usemtl None
s off
f 1//1 3//1 5//1
f 16//2 14//2 203//2 204//2
f 70//3 4//3 6//3 71//3
f 1//1 5//1 7//1
f 38//4 36//4 214//4 215//4
f 71//5 6//5 8//5 75//5
f 1//1 7//1 9//1
f 60//6 58//6 225//6 226//6
f 75//7 8//7 10//7 79//7
f 1//1 9//1 11//1
f 30//8 28//8 210//8 211//8
f 79//9 10//9 12//9 83//9
f 1//1 11//1 13//1
f 8//10 6//10 199//10 200//10
f 83//11 12//11 14//11 87//11
f 1//1 13//1 15//1
f 52//12 50//12 221//12 222//12
f 87//13 14//13 16//13 91//13
f 1//1 15//1 17//1
f 22//14 20//14 206//14 207//14
f 91//15 16//15 18//15 95//15
f 1//1 17//1 19//1
f 44//16 42//16 217//16 218//16
f 95//17 18//17 20//17 99//17
f 1//1 19//1 21//1
f 66//18 64//18 228//18 229//18
f 99//19 20//19 22//19 103//19
f 1//1 21//1 23//1
f 36//20 34//20 213//20 214//20
f 103//21 22//21 24//21 107//21
f 1//1 23//1 25//1
f 14//22 12//22 202//22 203//22
f 107//23 24//23 26//23 111//23
f 1//1 25//1 27//1
f 58//24 56//24 224//24 225//24
f 111//25 26//25 28//25 115//25
f 1//1 27//1 29//1
f 28//26 26//26 209//26 210//26
f 115//27 28//27 30//27 119//27
f 1//1 29//1 31//1
f 50//28 48//28 220//28 221//28
f 119//29 30//29 32//29 123//29
f 1//1 31//1 33//1
f 20//30 18//30 205//30 206//30
f 123//31 32//31 34//31 127//31
f 1//1 33//1 35//1
f 42//32 40//32 216//32 217//32
f 127//33 34//33 36//33 131//33
f 1//1 35//1 37//1
f 64//34 62//34 227//34 228//34
f 131//35 36//35 38//35 135//35
f 1//1 37//1 39//1
f 34//36 32//36 212//36 213//36
f 135//37 38//37 40//37 139//37
f 1//1 39//1 41//1
f 12//38 10//38 201//38 202//38
f 139//39 40//39 42//39 143//39
f 1//1 41//1 43//1
f 56//40 54//40 223//40 224//40
f 143//41 42//41 44//41 147//41
f 1//1 43//1 45//1
f 26//42 24//42 208//42 209//42
f 147//43 44//43 46//43 151//43
f 1//1 45//1 47//1
f 48//44 46//44 219//44 220//44
f 151//45 46//45 48//45 155//45
f 1//1 47//1 49//1
f 18//46 16//46 204//46 205//46
f 155//47 48//47 50//47 159//47
f 1//1 49//1 51//1
f 40//48 38//48 215//48 216//48
f 159//49 50//49 52//49 163//49
f 1//1 51//1 53//1
f 62//50 60//50 226//50 227//50
f 163//51 52//51 54//51 167//51
f 1//1 53//1 55//1
f 32//52 30//52 211//52 212//52
f 167//53 54//53 56//53 171//53
f 1//1 55//1 57//1
f 10//54 8//54 200//54 201//54
f 171//55 56//55 58//55 175//55
f 1//1 57//1 59//1
f 6//56 4//56 197//56 199//56
f 175//57 58//57 60//57 179//57
f 1//1 59//1 61//1
f 54//58 52//58 222//58 223//58
f 179//59 60//59 62//59 183//59
f 1//1 61//1 63//1
f 4//60 66//60 229//60 197//60
f 183//61 62//61 64//61 187//61
f 1//1 63//1 65//1
f 24//62 22//62 207//62 208//62
f 187//63 64//63 66//63 191//63
f 1//1 65//1 3//1
f 46//64 44//64 218//64 219//64
f 191//65 66//65 4//65 70//65
f 65//66 194//66 67//66 3//66
f 194//20 193//20 68//20 67//20
f 193//20 192//20 69//20 68//20
f 192//20 191//20 70//20 69//20
f 63//67 190//67 194//67 65//67
f 190//36 189//36 193//36 194//36
f 189//36 188//36 192//36 193//36
f 188//36 187//36 191//36 192//36
f 61//68 186//68 190//68 63//68
f 186//52 185//52 189//52 190//52
f 185//52 184//52 188//52 189//52
f 184//52 183//52 187//52 188//52
f 59//69 182//69 186//69 61//69
f 182//8 181//8 185//8 186//8
f 181//8 180//8 184//8 185//8
f 180//8 179//8 183//8 184//8
f 57//70 178//70 182//70 59//70
f 178//26 177//26 181//26 182//26
f 177//26 176//26 180//26 181//26
f 176//26 175//26 179//26 180//26
f 55//71 174//71 178//71 57//71
f 174//42 173//42 177//42 178//42
f 173//42 172//42 176//42 177//42
f 172//42 171//42 175//42 176//42
f 53//72 170//72 174//72 55//72
f 170//62 169//62 173//62 174//62
f 169//62 168//62 172//62 173//62
f 168//62 167//62 171//62 172//62
f 51//73 166//73 170//73 53//73
f 166//14 165//14 169//14 170//14
f 165//14 164//14 168//14 169//14
f 164//14 163//14 167//14 168//14
f 49//74 162//74 166//74 51//74
f 162//30 161//30 165//30 166//30
f 161//30 160//30 164//30 165//30
f 160//30 159//30 163//30 164//30
f 47//75 158//75 162//75 49//75
f 158//46 157//46 161//46 162//46
f 157//46 156//46 160//46 161//46
f 156//46 155//46 159//46 160//46
f 45//76 154//76 158//76 47//76
f 154//2 153//2 157//2 158//2
f 153//2 152//2 156//2 157//2
f 152//2 151//2 155//2 156//2
f 43//77 150//77 154//77 45//77
f 150//22 149//22 153//22 154//22
f 149//22 148//22 152//22 153//22
f 148//22 147//22 151//22 152//22
f 41//78 146//78 150//78 43//78
f 146//38 145//38 149//38 150//38
f 145//38 144//38 148//38 149//38
f 144//38 143//38 147//38 148//38
f 39//79 142//79 146//79 41//79
f 142//54 141//54 145//54 146//54
f 141//54 140//54 144//54 145//54
f 140//54 139//54 143//54 144//54
f 37//80 138//80 142//80 39//80
f 138//10 137//10 141//10 142//10
f 137//10 136//10 140//10 141//10
f 136//10 135//10 139//10 140//10
f 35//81 134//81 138//81 37//81
f 134//56 133//56 137//56 138//56
f 133//56 132//56 136//56 137//56
f 132//56 131//56 135//56 136//56
f 33//82 130//82 134//82 35//82
f 130//60 129//60 133//60 134//60
f 129//60 128//60 132//60 133//60
f 128//60 127//60 131//60 132//60
f 31//83 126//83 130//83 33//83
f 126//18 125//18 129//18 130//18
f 125//18 124//18 128//18 129//18
f 124//18 123//18 127//18 128//18
f 29//84 122//84 126//84 31//84
f 122//34 121//34 125//34 126//34
f 121//34 120//34 124//34 125//34
f 120//34 119//34 123//34 124//34
f 27//85 118//85 122//85 29//85
f 118//50 117//50 121//50 122//50
f 117//50 116//50 120//50 121//50
f 116//50 115//50 119//50 120//50
f 25//86 114//86 118//86 27//86
f 114//6 113//6 117//6 118//6
f 113//6 112//6 116//6 117//6
f 112//6 111//6 115//6 116//6
f 23//87 110//87 114//87 25//87
f 110//24 109//24 113//24 114//24
f 109//24 108//24 112//24 113//24
f 108//24 107//24 111//24 112//24
f 21//88 106//88 110//88 23//88
f 106//40 105//40 109//40 110//40
f 105//40 104//40 108//40 109//40
f 104//40 103//40 107//40 108//40
f 19//89 102//89 106//89 21//89
f 102//58 101//58 105//58 106//58
f 101//58 100//58 104//58 105//58
f 100//58 99//58 103//58 104//58
f 17//90 98//90 102//90 19//90
f 98//12 97//12 101//12 102//12
f 97//12 96//12 100//12 101//12
f 96//12 95//12 99//12 100//12
f 15//91 94//91 98//91 17//91
f 94//28 93//28 97//28 98//28
f 93//28 92//28 96//28 97//28
f 92//28 91//28 95//28 96//28
f 13//92 90//92 94//92 15//92
f 90//44 89//44 93//44 94//44
f 89//44 88//44 92//44 93//44
f 88//44 87//44 91//44 92//44
f 11//93 86//93 90//93 13//93
f 86//64 85//64 89//64 90//64
f 85//64 84//64 88//64 89//64
f 84//64 83//64 87//64 88//64
f 9//94 82//94 86//94 11//94
f 82//16 81//16 85//16 86//16
f 81//16 80//16 84//16 85//16
f 80//16 79//16 83//16 84//16
f 7//95 78//95 82//95 9//95
f 78//32 77//32 81//32 82//32
f 77//32 76//32 80//32 81//32
f 76//32 75//32 79//32 80//32
f 5//96 74//96 78//96 7//96
f 74//48 73//48 77//48 78//48
f 73//48 72//48 76//48 77//48
f 72//48 71//48 75//48 76//48
f 3//97 67//97 74//97 5//97
f 67//4 68//4 73//4 74//4
f 68//4 69//4 72//4 73//4
f 69//4 70//4 71//4 72//4
f 198//98 199//98 197//98
f 198//98 200//98 199//98
f 198//98 201//98 200//98
f 198//98 202//98 201//98
f 198//98 203//98 202//98
f 198//98 204//98 203//98
f 198//98 205//98 204//98
f 198//98 206//98 205//98
f 198//98 207//98 206//98
f 198//98 208//98 207//98
f 198//98 209//98 208//98
f 198//98 210//98 209//98
f 198//98 211//98 210//98
f 198//98 212//98 211//98
f 198//98 213//98 212//98
f 198//98 214//98 213//98
f 198//98 215//98 214//98
f 198//98 216//98 215//98
f 198//98 217//98 216//98
f 198//98 218//98 217//98
f 198//98 219//98 218//98
f 198//98 220//98 219//98
f 198//98 221//98 220//98
f 198//98 222//98 221//98
f 198//98 223//98 222//98
f 198//98 224//98 223//98
f 198//98 225//98 224//98
f 198//98 226//98 225//98
f 198//98 227//98 226//98
f 198//98 228//98 227//98
f 198//98 229//98 228//98
f 198//98 197//98 229//98
l 2 195
l 195 196
